{"title":"X-men Quadrilogy (PSP + Ipod touch + Zune)","uid":5673030,"size":1793366010,"categoryP":"video","categoryS":"handheld","magnet":"?xt=urn:btih:5ff03dd23c2f127d7d23edc322a7cf28c7bba221&amp;dn=X-men+Quadrilogy+%28PSP+%2B+Ipod+touch+%2B+Zune%29&amp;tr=udp%3A%2F%2Ftracker.openbittorrent.com%3A80&amp;tr=udp%3A%2F%2Fopen.demonii.com%3A1337&amp;tr=udp%3A%2F%2Ftracker.coppersurfer.tk%3A6969&amp;tr=udp%3A%2F%2Fexodus.desync.com%3A6969","seeders":0,"leechers":1,"uploader":"on.off.on","files":4,"time":1278425180,"description":"X-Men Quadrilogy\n\nX-Men &lt;a href=&quot;\nhttp://www.imdb.com/title/tt0120903/&quot; rel=&quot;nofollow&quot; target=&quot;_NEW&quot;&gt;\nhttp://www.imdb.com/title/tt0120903/&lt;/a&gt;\n\nX2 &lt;a href=&quot;\nhttp://www.imdb.com/title/tt0290334/&quot; rel=&quot;nofollow&quot; target=&quot;_NEW&quot;&gt;\nhttp://www.imdb.com/title/tt0290334/&lt;/a&gt;\n\nX-Men: The last stand &lt;a href=&quot;\nhttp://www.imdb.com/title/tt0376994/&quot; rel=&quot;nofollow&quot; target=&quot;_NEW&quot;&gt;\nhttp://www.imdb.com/title/tt0376994/&lt;/a&gt;\n\nX-Men Origins: Wolverine &lt;a href=&quot;\nhttp://www.imdb.com/title/tt0458525/&quot; rel=&quot;nofollow&quot; target=&quot;_NEW&quot;&gt;\nhttp://www.imdb.com/title/tt0458525/&lt;/a&gt;\n\nSource  :\n\nX-Men.2000.BluRay.720p.x264.DTS-WiKi\n\nX2.2003.BluRay.720p.x264.DTS-WiKi\n\nX-Men.The.Last.Stand.2006.BluRay.720p.x264.DTS-WiKi\n\nX-Men.Origins.Wolverine.BluRay.720p.x264.DTS-WiKi-1\n\n\nInfo X-men:\n\nID                               : 1\nFormat                           : AVC\nFormat/Info                      : Advanced Video Codec\nFormat profile                   : &lt;a class=&quot;__cf_email__&quot; href=&quot;/cdn-cgi/l/email-protection&quot; data-cfemail=&quot;89cbe8faece5e0e7ecc9c5bba7b9&quot;&gt;[email&amp;#160;protected]&lt;/a&gt;&lt;script cf-hash='f9e31' type=&quot;text/javascript&quot;&gt;\n/* &lt;![CDATA[ */!function(){try{var t=&quot;currentScript&quot;in document?document.currentScript:function(){for(var t=document.getElementsByTagName(&quot;script&quot;),e=t.length;e--;)if(t[e].getAttribute(&quot;cf-hash&quot;))return t[e]}();if(t&amp;&amp;t.previousSibling){var e,r,n,i,c=t.previousSibling,a=c.getAttribute(&quot;data-cfemail&quot;);if(a){for(e=&quot;&quot;,r=parseInt(a.substr(0,2),16),n=2;a.length-n;n+=2)i=parseInt(a.substr(n,2),16)^r,e+=String.fromCharCode(i);e=document.createTextNode(e),c.parentNode.replaceChild(e,c)}}}catch(u){}}();/* ]]&gt; */&lt;/script&gt;\nFormat settings, CABAC           : No\nFormat settings, ReFrames        : 3 frames\nCodec ID                         : avc1\nCodec ID/Info                    : Advanced Video Coding\nDuration                         : 1h 44mn\nBit rate mode                    : Variable\nBit rate                         : 400 Kbps\nWidth                            : 480 pixels\nHeight                           : 208 pixels\nDisplay aspect ratio             : 2.35:1\nFrame rate mode                  : Variable\nFrame rate                       : 23.976 fps\nMinimum frame rate               : 23.810 fps\nMaximum frame rate               : 24.390 fps\nColor space                      : YUV\nChroma subsampling               : 4:2:0\nBit depth                        : 8 bits\nScan type                        : Progressive\nBits/(Pixel*Frame)               : 0.167\nStream size                      : 298 MiB (75%)\nWriting library                  : x264 core 79\n\nID                               : 2\nFormat                           : AAC\nFormat/Info                      : Advanced Audio Codec\nFormat version                   : Version 4\nFormat profile                   : LC\nFormat settings, SBR             : No\nCodec ID                         : 40\nDuration                         : 1h 44mn\nBit rate mode                    : Variable\nBit rate                         : 128 Kbps\nMaximum bit rate                 : 234 Kbps\nChannel(s)                       : 2 channels\nChannel positions                : Front: L R\nSampling rate                    : 48.0 KHz\nStream size                      : 95.5 MiB (24%)\nLanguage                         : English\n\n\nScreens : &lt;a href=&quot;\nhttp://img192.imageshack.us/img192/5147/x2ooom4vthumbs201007061.jpg&quot; rel=&quot;nofollow&quot; target=&quot;_NEW&quot;&gt;\nhttp://img192.imageshack.us/img192/5147/x2ooom4vthumbs201007061.jpg&lt;/a&gt; &lt;a href=&quot;\nhttp://img208.imageshack.us/img208/6024/xmenoriginswolverineooo.jpg&quot; rel=&quot;nofollow&quot; target=&quot;_NEW&quot;&gt;\nhttp://img208.imageshack.us/img208/6024/xmenoriginswolverineooo.jpg&lt;/a&gt; &lt;a href=&quot;\nhttp://img180.imageshack.us/img180/4263/xmenthelaststandooom4vt.jpg&quot; rel=&quot;nofollow&quot; target=&quot;_NEW&quot;&gt;\nhttp://img180.imageshack.us/img180/4263/xmenthelaststandooom4vt.jpg&lt;/a&gt; &lt;a href=&quot;\nhttp://img716.imageshack.us/img716/8204/xmenooom4vthumbs2010070.jpg&quot; rel=&quot;nofollow&quot; target=&quot;_NEW&quot;&gt;\nhttp://img716.imageshack.us/img716/8204/xmenooom4vthumbs2010070.jpg&lt;/a&gt;\n\n\n\n\nPLEASE LET THE TORRENT SEED AND SHARE IT WITH ALL YOU KNOW!\n\nLet me know what I can do to be your trusted source of Handheld videos. &lt;a href=&quot;\nhttp://thepiratebay.se/user/on.off.on/&quot; rel=&quot;nofollow&quot; target=&quot;_NEW&quot;&gt;\nhttp://thepiratebay.se/user/on.off.on/&lt;/a&gt; -OOO\n\n\nPLEASE LEAVE A COMMENT IF YOU LIKE THIS RELEASE :)","torrent":{"xt":"urn:btih:5ff03dd23c2f127d7d23edc322a7cf28c7bba221","amp;dn":"X-men+Quadrilogy+%28PSP+%2B+Ipod+touch+%2B+Zune%29","amp;tr":["udp%3A%2F%2Ftracker.openbittorrent.com%3A80","udp%3A%2F%2Fopen.demonii.com%3A1337","udp%3A%2F%2Ftracker.coppersurfer.tk%3A6969","udp%3A%2F%2Fexodus.desync.com%3A6969"],"infoHash":"5ff03dd23c2f127d7d23edc322a7cf28c7bba221","infoHashBuffer":{"type":"Buffer","data":[95,240,61,210,60,47,18,125,125,35,237,195,34,167,207,40,199,187,162,33]},"announce":[],"urlList":[]}}